<?xml version="1.0" standalone="no"?>
<!DOCTYPE svg PUBLIC "-//W3C//DTD SVG 20010904//EN"
 "http://www.w3.org/TR/2001/REC-SVG-20010904/DTD/svg10.dtd">
<svg version="1.0" xmlns="http://www.w3.org/2000/svg"
 width="4000.000000pt" height="4000.000000pt" viewBox="0 0 4000.000000 4000.000000"
 preserveAspectRatio="xMidYMid meet">
<metadata>
Created by potrace 1.14, written by Peter Selinger 2001-2017
</metadata>
<g transform="translate(0.000000,4000.000000) scale(0.100000,-0.100000)"
fill="#000000" stroke="none">
<path d="M19565 35943 c-3875 -115 -7569 -1647 -10392 -4312 -397 -374 -878
-881 -1222 -1286 -1066 -1259 -1929 -2669 -2562 -4193 -446 -1072 -788 -2266
-978 -3407 -63 -377 -105 -688 -140 -1035 -88 -866 -105 -1838 -45 -2700 178
-2605 972 -5067 2348 -7285 937 -1511 2163 -2891 3571 -4020 2482 -1989 5496
-3181 8660 -3424 473 -37 704 -45 1245 -45 519 0 762 8 1185 40 2560 190 5011
991 7190 2347 1995 1243 3719 2946 4987 4927 999 1562 1720 3292 2117 5085
547 2470 498 5071 -140 7490 -921 3491 -2991 6546 -5901 8708 -2461 1829
-5390 2898 -8458 3087 -424 26 -1042 36 -1465 23z m1102 -2333 l273 0 0 -210
0 -210 -287 -2 -288 -3 -6 -800 c-3 -440 -6 -801 -7 -802 -1 -2 -114 -3 -252
-3 l-250 0 0 805 0 805 -285 0 -285 0 0 217 0 216 557 -6 c306 -4 679 -7 830
-7z m-5400 -1937 l451 -908 -223 -112 -224 -113 -606 376 c-334 206 -609 373
-612 371 -2 -3 118 -248 266 -546 l271 -541 -224 -112 c-124 -62 -227 -110
-229 -108 -9 10 -908 1812 -905 1815 2 2 103 53 225 114 l222 111 598 -371
c329 -204 604 -374 611 -376 7 -3 -108 238 -257 536 -149 297 -271 543 -271
546 0 6 432 224 446 224 6 1 214 -407 461 -906z m11012 426 c191 -108 335
-285 370 -457 45 -217 -50 -495 -228 -672 -114 -113 -228 -166 -381 -178 l-85
-7 4 -398 3 -398 -236 118 -236 118 0 357 0 358 -130 65 c-71 36 -133 65 -138
65 -4 0 -70 -126 -147 -280 -77 -154 -143 -280 -147 -280 -5 0 -107 49 -227
110 l-220 109 451 910 451 909 420 -209 c231 -115 445 -223 476 -240z m-16412
-3407 l171 -128 -280 -373 c-154 -205 -278 -374 -276 -375 82 -64 292 -218
301 -221 7 -3 93 103 211 260 109 146 202 265 207 265 5 0 79 -52 163 -116
l154 -115 -197 -262 c-109 -144 -200 -267 -204 -273 -4 -7 54 -57 148 -128
l154 -116 188 248 c104 136 229 303 278 370 50 67 95 119 102 117 7 -2 85 -59
173 -125 112 -84 158 -125 153 -134 -31 -50 -856 -1137 -862 -1134 -32 13
-1611 1214 -1609 1224 2 9 847 1140 854 1144 0 0 77 -58 171 -128z m21083
-568 c74 -102 139 -193 143 -203 7 -14 -118 -222 -562 -937 -314 -505 -575
-920 -579 -922 -5 -1 -76 89 -159 202 l-151 204 119 188 c66 104 117 194 115
200 -3 8 -428 589 -441 602 -2 2 -96 -21 -208 -52 -113 -31 -212 -56 -220 -56
-12 0 -323 409 -315 414 8 6 2095 545 2108 545 8 0 76 -83 150 -185z m-10804
-2199 c167 -32 346 -107 489 -205 286 -199 484 -520 535 -868 7 -45 15 -82 17
-82 3 0 31 16 63 35 32 19 104 57 161 85 86 41 114 50 160 50 170 0 276 -174
197 -325 -25 -47 -54 -69 -178 -132 -254 -129 -433 -282 -594 -507 -55 -77
-176 -304 -176 -331 0 -20 97 -23 381 -11 219 8 257 8 335 -8 171 -33 328
-114 371 -191 49 -88 38 -188 -30 -262 -74 -80 -171 -92 -287 -33 -115 58
-158 64 -389 50 -533 -32 -940 46 -1411 271 -91 43 -185 83 -210 88 -207 47
-432 -76 -625 -342 -61 -83 -120 -117 -204 -117 -143 1 -247 136 -211 272 27
97 212 315 366 431 270 203 587 260 874 158 30 -10 120 -51 200 -89 154 -75
365 -156 385 -149 6 3 17 25 24 48 7 24 26 73 42 108 34 75 36 91 9 91 -38 0
-215 63 -305 107 -140 71 -231 137 -345 252 -115 115 -177 201 -244 338 -176
358 -173 786 8 1141 28 55 78 106 121 123 79 31 318 33 471 4z m4842 -215
c189 -24 383 -94 535 -193 137 -89 164 -141 153 -294 -23 -329 -146 -603 -371
-828 -188 -188 -397 -299 -668 -356 -148 -31 -361 -31 -515 0 -62 13 -115 22
-116 20 -9 -11 -35 -274 -27 -277 46 -15 214 -143 297 -226 244 -242 367 -538
367 -881 0 -178 -17 -260 -123 -593 l-80 -252 76 -73 c83 -78 154 -172 173
-226 17 -53 13 -111 -13 -166 -27 -59 -46 -77 -106 -104 -98 -45 -209 -13
-278 81 -55 74 -130 142 -193 173 -67 34 -95 59 -122 110 -38 75 -31 116 90
500 61 193 116 374 122 403 6 29 11 97 11 150 0 223 -86 419 -252 578 -104
100 -211 160 -358 200 -99 27 -291 25 -394 -4 -142 -41 -261 -110 -363 -210
-125 -123 -162 -201 -288 -602 -53 -168 -103 -327 -112 -353 -17 -56 -62 -111
-107 -134 -52 -27 -97 -33 -173 -21 -170 25 -343 -47 -522 -218 -143 -136
-248 -291 -322 -473 -55 -136 -131 -201 -234 -201 -121 0 -218 98 -218 220 0
68 62 222 153 379 240 416 588 680 964 734 l89 12 82 260 c101 321 128 387
216 519 233 354 640 566 1062 554 l116 -3 5 25 c15 67 18 275 6 381 -30 281
-126 528 -296 764 -69 97 -84 130 -84 190 0 184 220 288 358 169 46 -39 119
-136 182 -241 l42 -72 68 88 c274 354 730 546 1168 491z m-9050 -1535 c264
-43 515 -170 708 -360 l94 -91 54 111 c88 177 125 228 187 259 153 76 322 -26
322 -195 0 -48 -6 -67 -42 -130 -149 -262 -216 -484 -228 -754 -7 -179 21
-435 49 -435 17 0 148 89 271 184 164 126 202 152 277 190 184 94 381 119 593
75 459 -93 895 -506 1111 -1049 85 -216 143 -495 118 -577 -19 -65 -53 -106
-111 -135 -69 -35 -128 -36 -197 -4 -87 41 -105 75 -144 278 -53 281 -190 551
-384 755 -147 156 -301 253 -466 294 -162 41 -272 13 -431 -110 -511 -393
-861 -549 -1423 -635 -195 -30 -257 -57 -340 -147 -59 -63 -117 -170 -137
-254 -17 -71 -42 -117 -83 -153 -116 -102 -309 -44 -352 105 -18 63 -14 100
27 225 101 311 311 530 594 617 39 12 131 31 205 42 211 32 450 88 450 107 0
11 -51 237 -54 240 -2 1 -43 -11 -92 -27 -558 -185 -1172 15 -1492 486 -119
175 -212 442 -212 605 0 92 26 137 124 214 289 230 650 326 1004 269z m-8688
-795 c91 -17 189 -35 218 -41 l53 -11 -50 -53 c-155 -164 -257 -427 -268 -695
-6 -144 8 -215 60 -315 86 -162 281 -274 512 -291 404 -32 652 295 632 831 -5
142 -20 217 -65 334 -12 30 -20 57 -18 59 3 2 107 -16 232 -40 l227 -43 24
-70 c36 -105 53 -224 53 -359 -1 -497 -198 -909 -528 -1106 -288 -170 -710
-173 -1060 -5 -115 55 -165 89 -254 174 -158 149 -253 342 -288 586 -38 269
45 664 189 904 62 103 127 180 148 175 10 -2 92 -17 183 -34z m26098 -677 c23
-135 41 -247 40 -248 -2 -1 -356 -62 -788 -135 -432 -73 -787 -134 -789 -136
-2 -2 29 -197 69 -434 41 -236 71 -433 68 -436 -7 -6 -409 -77 -412 -72 -1 2
-53 305 -115 673 -62 369 -114 677 -116 685 -4 12 159 43 973 181 537 92 989
167 1003 168 l25 1 42 -247z m-12253 212 c95 -20 206 -76 248 -125 81 -95 76
-216 -13 -301 -78 -76 -173 -87 -268 -33 -30 18 -67 28 -123 33 -96 10 -145
38 -185 107 -53 91 -30 216 51 281 66 53 160 65 290 38z m2589 -77 c62 -19
130 -91 146 -157 7 -29 9 -66 6 -83 -3 -17 -70 -232 -147 -477 l-141 -446 -7
-140 c-9 -185 -30 -228 -131 -274 -118 -54 -263 9 -298 129 -28 95 -21 269 18
418 41 159 289 925 307 950 26 35 62 60 109 77 49 18 85 18 138 3z m-5589
-675 c138 -34 296 -137 398 -259 118 -140 206 -326 207 -439 0 -125 -91 -215
-216 -215 -105 1 -174 49 -209 147 -56 155 -145 271 -246 318 -74 34 -123 33
-184 -6 -63 -40 -136 -55 -191 -40 -118 32 -185 138 -163 257 13 69 45 112
118 159 152 97 307 123 486 78z m6595 -1281 c104 -38 170 -80 250 -161 86 -87
138 -181 164 -298 23 -102 23 -1101 1 -1207 -16 -77 -58 -172 -105 -241 l-31
-45 31 -45 c48 -70 89 -165 106 -245 13 -62 14 -161 12 -629 l-3 -556 -29 -83
c-16 -45 -48 -112 -73 -148 l-43 -65 30 -45 c48 -69 89 -164 106 -244 13 -62
14 -161 12 -634 l-3 -561 -27 -73 c-71 -197 -211 -335 -402 -399 l-81 -27
-453 -4 c-519 -4 -520 -4 -591 73 -100 109 -72 279 58 347 l53 28 427 0 c393
0 429 2 466 19 46 21 79 54 94 94 7 19 11 202 11 541 l0 513 -23 43 c-16 30
-37 51 -67 67 l-43 23 -825 0 c-621 0 -835 3 -866 12 -82 25 -156 126 -156
215 0 87 75 190 156 212 26 7 307 11 857 11 664 0 824 3 850 14 42 17 93 76
107 123 8 26 10 202 8 560 l-3 521 -30 43 c-16 23 -46 50 -65 60 -34 18 -173
19 -4549 19 l-4514 0 -43 -25 c-31 -18 -50 -39 -69 -78 l-26 -54 3 -524 3
-524 23 -38 c13 -20 40 -50 60 -65 l35 -27 2766 -5 2766 -5 45 -25 c68 -39
104 -96 108 -178 5 -90 -31 -162 -103 -207 l-48 -30 -2771 -5 c-2082 -4 -2776
-8 -2791 -17 -31 -18 -73 -65 -84 -96 -7 -19 -11 -201 -11 -535 0 -471 2 -510
19 -547 22 -48 44 -69 94 -90 32 -13 256 -15 2004 -15 1367 0 1980 -3 2007
-11 81 -22 156 -125 156 -212 0 -91 -75 -192 -160 -215 -35 -10 -481 -12
-2050 -10 l-2005 3 -80 28 c-200 71 -331 202 -402 402 l-28 80 -3 549 c-3 473
-1 561 13 628 18 92 49 165 100 243 l36 54 -31 46 c-50 72 -89 166 -105 249
-22 114 -22 1068 0 1182 16 85 57 181 106 249 l32 45 -32 45 c-48 66 -88 161
-106 252 -14 69 -16 153 -13 629 4 611 2 586 76 728 82 157 248 280 427 316
22 4 2101 7 4620 6 l4580 -1 65 -23z m-8602 -2606 c78 -41 112 -111 112 -234
0 -114 -28 -179 -97 -219 -101 -59 -226 -23 -277 79 -22 44 -26 65 -26 140 0
122 27 181 105 229 37 23 143 26 183 5z m8059 -11 c77 -45 112 -153 93 -285
-16 -117 -89 -183 -200 -183 -65 0 -105 18 -148 67 -38 44 -52 91 -52 181 0
91 14 137 53 182 41 47 78 62 151 63 46 0 69 -6 103 -25z m8431 -365 c27 -36
47 -37 130 -9 73 24 92 20 92 -19 0 -15 6 -37 14 -48 14 -19 16 -19 103 4 48
12 100 22 115 22 24 0 27 -4 30 -37 l3 -38 55 0 c30 1 75 3 100 5 l45 5 3 -37
c4 -52 23 -60 117 -48 43 5 81 7 86 4 5 -3 6 -23 3 -46 l-7 -40 87 7 c91 8 94
7 76 -39 -13 -35 -3 -39 97 -37 l84 2 -16 -31 c-24 -46 -14 -52 73 -44 70 7
76 6 64 -9 -22 -26 -5 -37 57 -37 52 0 59 -3 69 -25 8 -18 25 -28 59 -37 47
-11 47 -12 21 -22 -37 -16 -68 -46 -68 -67 0 -13 -14 -21 -55 -30 -62 -14 -76
-26 -51 -45 22 -16 13 -20 -60 -29 -85 -9 -94 -17 -66 -55 26 -35 26 -35 -66
-49 -84 -13 -96 -23 -74 -61 9 -16 14 -32 10 -36 -4 -3 -37 -10 -73 -13 -75
-8 -96 -21 -77 -51 13 -22 16 -50 5 -50 -20 -1 -150 -21 -167 -26 -16 -5 -18
-13 -12 -50 6 -50 8 -50 -105 -57 -37 -3 -72 -8 -78 -11 -6 -4 -11 -27 -11
-52 l0 -44 -108 0 c-71 0 -112 -4 -120 -12 -7 -7 -12 -32 -12 -56 l0 -45 -84
6 c-93 7 -119 -3 -130 -49 -8 -29 7 -28 -159 -7 -46 5 -48 5 -60 -26 -14 -37
-20 -37 -115 -10 l-72 22 -23 -21 c-32 -30 -43 -28 -111 18 -64 44 -82 48
-112 25 -34 -26 -57 -18 -106 37 l-46 53 -37 -14 c-43 -15 -47 -13 -84 56 -25
46 -28 48 -71 48 l-44 0 -33 69 c-33 66 -35 68 -65 62 -28 -6 -37 0 -103 66
-87 88 -157 132 -252 156 l-71 18 63 32 c82 43 165 125 220 220 39 66 49 77
72 77 32 0 47 24 63 108 l12 58 36 -3 c40 -3 51 10 72 90 11 41 11 42 55 42
43 0 45 1 74 53 38 68 49 79 69 73 71 -21 70 -21 131 43 60 63 80 72 101 46
19 -23 35 -19 109 25 37 22 71 40 77 40 5 0 17 -14 26 -31 20 -35 28 -34 118
12 70 36 81 36 108 -1z m-24339 -17 c71 -38 99 -39 108 -3 8 29 31 25 98 -20
59 -39 98 -50 110 -30 14 22 43 7 96 -50 l56 -61 52 7 51 7 23 -51 c34 -72 44
-82 88 -82 37 0 39 -2 49 -42 22 -92 23 -93 65 -98 43 -5 39 1 62 -120 7 -41
11 -45 41 -48 28 -3 36 -10 58 -55 61 -121 133 -199 243 -266 23 -13 30 -22
20 -25 -8 -2 -45 -12 -82 -21 -79 -20 -166 -73 -248 -152 -51 -48 -60 -53 -78
-43 -28 15 -37 8 -67 -53 -40 -79 -49 -87 -85 -73 -28 10 -33 9 -52 -15 -12
-15 -30 -41 -40 -59 -18 -33 -23 -34 -83 -15 -16 5 -32 -5 -71 -44 -28 -28
-56 -51 -62 -51 -6 0 -27 9 -47 19 -40 22 -45 21 -122 -26 -65 -38 -77 -40
-94 -13 -16 25 -51 26 -129 4 -69 -19 -86 -15 -91 23 -3 26 -6 28 -43 27 -22
-1 -67 -4 -101 -9 l-60 -7 -16 40 -16 41 -94 3 -93 3 0 47 c0 25 -4 50 -8 55
-5 4 -54 10 -110 11 -56 2 -107 8 -114 14 -7 6 -10 22 -6 39 8 43 -10 57 -85
64 -37 3 -77 10 -89 15 -20 8 -20 12 -10 45 7 23 7 39 1 45 -8 8 -155 40 -181
40 -8 0 -1 40 7 45 16 10 11 43 -7 49 -10 3 -44 8 -76 12 -31 3 -60 10 -63 15
-2 5 3 20 12 34 25 39 13 52 -63 65 -92 15 -99 20 -72 54 28 36 18 44 -64 58
-66 11 -81 20 -52 32 29 11 15 26 -41 42 -33 9 -57 23 -60 32 -11 36 -22 48
-64 70 l-44 22 31 0 c46 0 84 17 90 40 5 17 14 20 67 20 72 0 83 6 59 32 -19
22 -14 22 71 8 76 -12 93 -2 70 42 l-15 30 93 -4 c100 -3 94 -7 86 52 -3 24
-1 25 37 21 22 -3 60 -5 85 -5 l45 -1 -3 38 c-4 43 -3 43 109 26 82 -13 99 -5
99 47 0 30 3 34 28 34 15 -1 54 -7 86 -15 72 -17 96 -8 96 36 0 43 21 46 119
14 115 -36 131 -32 146 38 7 34 23 34 109 2 72 -27 95 -24 116 15 15 29 43 25
119 -17z m14009 -359 c82 -34 131 -111 132 -205 0 -78 -30 -132 -109 -191
-190 -143 -316 -301 -395 -498 -18 -47 -37 -97 -40 -112 -6 -25 -3 -28 17 -28
13 0 89 17 168 37 128 33 158 37 269 38 111 0 135 -3 213 -29 348 -114 599
-475 662 -954 19 -140 19 -246 1 -382 -84 -629 -507 -1145 -1054 -1286 -132
-35 -311 -43 -441 -20 -88 15 -102 15 -194 0 -135 -23 -306 -15 -440 20 -512
132 -912 585 -1038 1176 -31 143 -33 426 -5 575 86 462 354 804 697 889 70 17
227 21 294 7 22 -5 94 -23 160 -40 65 -18 144 -34 175 -38 l56 -5 12 65 c32
175 140 420 257 582 110 154 326 355 430 401 41 18 128 17 173 -2z m-6171
-1015 c40 -15 82 -57 104 -104 29 -62 26 -204 -5 -271 -40 -86 -130 -128 -223
-105 -107 27 -153 100 -153 244 0 124 36 198 115 233 36 16 123 18 162 3z
m8046 -3 c42 -18 82 -61 103 -111 26 -62 24 -199 -5 -259 -73 -149 -282 -151
-355 -4 -22 43 -26 66 -26 133 0 124 33 195 108 235 44 23 128 26 175 6z
m-13597 -2898 c81 -106 147 -198 148 -204 1 -7 -144 -123 -322 -259 l-323
-247 34 -41 c18 -23 127 -165 241 -315 115 -150 212 -274 216 -277 4 -2 150
106 326 240 175 135 324 244 329 244 6 0 77 -88 159 -196 144 -190 148 -196
130 -213 -25 -25 -1588 -1220 -1594 -1219 -3 0 -74 90 -157 201 l-152 200 307
235 c169 129 308 238 310 243 6 16 -479 641 -491 633 -7 -4 -143 -107 -304
-230 -160 -123 -298 -225 -305 -228 -8 -3 -68 67 -160 187 -81 106 -148 197
-150 201 -3 8 1589 1234 1604 1236 4 1 73 -86 154 -191z m19813 -743 c429
-335 780 -615 780 -620 1 -6 -197 -263 -439 -572 l-441 -562 -164 127 c-90 70
-164 131 -164 136 -1 8 59 87 425 552 l142 182 -148 116 c-82 64 -153 116
-158 116 -4 0 -100 -117 -212 -260 -112 -143 -207 -260 -211 -260 -6 0 -277
208 -308 236 -2 1 90 121 203 266 113 145 206 266 206 270 0 4 -142 118 -315
254 -180 142 -314 253 -311 260 3 7 71 98 153 202 129 166 150 189 165 179 10
-7 368 -286 797 -622z m-4080 -3696 c243 -502 439 -915 434 -919 -15 -14 -878
-428 -934 -448 -197 -72 -418 -67 -572 15 -29 15 -90 66 -137 113 -69 68 -95
104 -137 185 -136 263 -134 499 6 705 l41 59 -208 158 c-114 86 -256 195 -316
240 l-108 83 123 59 c68 32 174 83 235 114 l110 55 283 -214 c155 -118 286
-214 292 -214 21 0 259 119 259 129 0 6 -45 104 -101 218 -56 115 -116 241
-135 281 l-34 72 223 109 c122 60 225 110 228 110 3 1 204 -409 448 -910z
m-11479 686 c179 -38 393 -134 586 -264 117 -78 254 -195 293 -250 l20 -28
-94 -194 c-52 -107 -96 -198 -98 -204 -2 -5 -17 6 -32 25 -53 66 -200 206
-269 257 -161 119 -308 187 -408 187 -74 1 -105 -15 -145 -74 -55 -80 -17
-173 148 -365 263 -305 339 -448 339 -635 0 -212 -128 -412 -316 -496 -202
-90 -452 -65 -729 73 -170 86 -349 216 -425 313 l-33 41 93 195 c51 107 95
194 97 194 2 0 43 -41 90 -90 108 -114 194 -179 308 -234 176 -86 280 -88 348
-7 36 43 43 91 23 145 -17 44 -112 167 -249 322 -156 175 -231 294 -261 410
-31 120 -14 230 60 382 75 155 191 255 346 296 70 19 220 20 308 1z m5918
-2299 c-2 -558 -5 -1016 -8 -1018 -3 -3 -326 -2 -717 0 l-713 4 0 212 0 211
462 0 463 0 3 191 2 191 -181 6 c-100 4 -253 7 -341 7 l-158 0 0 195 0 195
340 0 340 0 0 195 0 195 -193 0 c-107 0 -316 3 -465 7 l-272 6 0 209 0 208
720 0 721 0 -3 -1014z"/>
<path d="M25530 31699 c-67 -133 -120 -243 -118 -244 2 -2 81 -42 176 -88 278
-137 362 -142 464 -28 55 61 88 141 88 212 0 114 -62 173 -311 299 l-179 90
-120 -241z"/>
<path d="M30440 27776 c-41 -13 -195 -58 -342 -101 -148 -43 -268 -82 -268
-88 0 -12 283 -396 292 -397 7 0 408 594 408 605 0 8 -8 6 -90 -19z"/>
<path d="M19899 25474 c-29 -76 -41 -171 -36 -289 10 -224 78 -383 236 -549
141 -147 347 -246 536 -257 l60 -4 20 55 c16 46 19 82 20 225 0 167 -1 172
-33 265 -113 326 -394 554 -709 577 l-82 6 -12 -29z"/>
<path d="M24733 25269 c-315 -38 -598 -275 -703 -587 -44 -130 -43 -135 33
-165 143 -57 345 -74 495 -42 308 64 556 290 640 580 38 129 39 119 -27 149
-128 57 -297 83 -438 65z"/>
<path d="M15587 23735 c-88 -17 -186 -54 -262 -98 -27 -16 -52 -31 -54 -32 -7
-8 33 -114 71 -185 92 -173 238 -306 419 -380 221 -92 486 -86 694 14 107 51
110 55 95 102 -66 204 -241 403 -447 508 -142 71 -357 101 -516 71z"/>
<path d="M15485 20444 c-47 -24 -83 -64 -100 -108 -14 -36 -15 -111 -13 -563
l3 -521 30 -43 c17 -23 50 -53 74 -66 l44 -23 4516 0 4517 0 44 23 c24 12 58
39 74 60 l31 39 3 521 c2 287 0 537 -3 555 -7 40 -68 110 -112 129 -27 11
-785 13 -4555 13 -4075 0 -4526 -2 -4553 -16z m621 -409 c66 -39 94 -104 94
-219 0 -102 -17 -152 -66 -198 -38 -35 -74 -48 -134 -48 -60 0 -96 13 -134 48
-49 46 -66 96 -66 198 0 77 4 98 26 142 52 105 174 139 280 77z m8034 7 c78
-41 119 -153 102 -279 -17 -123 -89 -193 -200 -193 -67 0 -109 18 -149 63 -40
46 -53 92 -53 192 0 79 17 135 52 175 59 68 162 86 248 42z"/>
<path d="M20760 16113 c-31 -11 -68 -39 -121 -92 -62 -62 -85 -94 -122 -171
-204 -422 -99 -950 256 -1287 91 -87 146 -124 250 -173 158 -74 296 -86 467
-39 l83 23 91 -25 c251 -67 488 4 711 213 170 159 304 409 346 648 18 102 15
296 -6 394 -49 233 -165 420 -303 490 -82 42 -120 43 -266 6 -206 -51 -330
-70 -506 -76 -231 -9 -432 16 -660 82 -96 27 -155 29 -220 7z"/>
<path d="M25632 8806 c-190 -96 -247 -138 -283 -208 -30 -59 -25 -130 15 -213
72 -149 160 -192 307 -149 43 13 373 164 386 178 4 4 -225 474 -234 479 -5 3
-90 -36 -191 -87z"/>
</g>
</svg>
