<?xml version="1.0" encoding="iso-8859-1"?>
<svg xmlns="http://www.w3.org/2000/svg" xmlns:xlink="http://www.w3.org/1999/xlink" version="1.1" viewBox="0 0 65.007 65.007" enable-background="new 0 0 65.007 65.007" width="512px" height="512px">
  <g>
    <g>
      <path d="m1.055,38.726c0.107,0 0.218-0.016 0.326-0.052l4.751-1.545c0.554-0.181 0.857-0.775 0.678-1.329-0.179-0.554-0.773-0.856-1.329-0.678l-4.751,1.545c-0.554,0.181-0.857,0.775-0.678,1.329 0.144,0.448 0.558,0.73 1.003,0.73z" fill="#91DC5A"/>
    </g>
    <g>
      <path d="m.729,18.728l4.751,1.543c0.107,0.035 0.218,0.052 0.326,0.052 0.445,0 0.859-0.283 1.003-0.729 0.179-0.554-0.124-1.149-0.678-1.329l-4.751-1.544c-0.552-0.177-1.15,0.125-1.329,0.678-0.179,0.554 0.124,1.148 0.678,1.329z" fill="#91DC5A"/>
    </g>
    <g>
      <path d="m14.863,6.249c0.206,0.284 0.527,0.435 0.853,0.435 0.216,0 0.433-0.066 0.62-0.201 0.472-0.343 0.575-1.002 0.233-1.474l-2.936-4.042c-0.342-0.474-1.003-0.571-1.473-0.234-0.472,0.343-0.575,1.002-0.233,1.474l2.936,4.042z" fill="#91DC5A"/>
    </g>
    <g>
      <path d="m64.277,36.668l-4.751-1.545c-0.548-0.178-1.15,0.124-1.329,0.678-0.179,0.554 0.124,1.148 0.678,1.329l4.751,1.545c0.107,0.035 0.218,0.052 0.326,0.052 0.445,0 0.859-0.282 1.003-0.729 0.179-0.555-0.124-1.149-0.678-1.33z" fill="#91DC5A"/>
    </g>
    <g>
      <path d="m63.626,16.721l-4.751,1.543c-0.554,0.18-0.857,0.775-0.678,1.329 0.144,0.446 0.558,0.729 1.003,0.729 0.107,0 0.218-0.016 0.326-0.052l4.751-1.543c0.554-0.18 0.857-0.775 0.678-1.329-0.179-0.552-0.775-0.854-1.329-0.677z" fill="#91DC5A"/>
    </g>
    <g>
      <path d="m49.291,6.684c0.326,0 0.647-0.15 0.853-0.435l2.936-4.042c0.342-0.472 0.239-1.131-0.233-1.474-0.472-0.34-1.129-0.24-1.473,0.234l-2.936,4.042c-0.342,0.472-0.239,1.131 0.233,1.474 0.187,0.136 0.404,0.201 0.62,0.201z" fill="#91DC5A"/>
    </g>
    <g>
      <path d="m7.822,31.377c0.019,0.032 0.024,0.069 0.046,0.1l23.783,32.565c0.012,0.017 0.033,0.023 0.046,0.039 0.02,0.025 0.042,0.048 0.065,0.071 0.006,0.007 0.011,0.014 0.018,0.02 0.026,0.025 0.045,0.057 0.073,0.079 0.012,0.01 0.029,0.014 0.042,0.023 0.024,0.017 0.051,0.027 0.076,0.041 0.036,0.021 0.068,0.041 0.106,0.058 0.009,0.004 0.016,0.01 0.025,0.014 0.004,0.002 0.007,0.004 0.01,0.006 0.029,0.011 0.056,0.022 0.086,0.031 0.012,0.004 0.021,0.013 0.033,0.016 0.091,0.025 0.181,0.035 0.27,0.035 0,0 0.009-0.002 0.013-0.002 0,0 0.005,0.002 0.008,0.002 0.01,0 0.019-0.006 0.029-0.006 0.064-0.003 0.128-0.007 0.193-0.023 0.023-0.005 0.04-0.022 0.062-0.028 0.102-0.029 0.193-0.072 0.28-0.129 0.015-0.01 0.033-0.016 0.047-0.027 0.006-0.004 0.009-0.01 0.014-0.014 0.078-0.059 0.144-0.125 0.203-0.204 0,0 0.001-0.001 0.002-0.001l23.332-31.885c0.023-0.032 0.029-0.07 0.048-0.104 0.037-0.063 0.068-0.126 0.091-0.197 0.022-0.069 0.034-0.136 0.042-0.207 0.005-0.04 0.023-0.074 0.023-0.115v-6.257c0-0.044-0.02-0.081-0.025-0.124-0.008-0.072-0.019-0.141-0.042-0.211-0.024-0.069-0.057-0.13-0.093-0.192-0.022-0.037-0.029-0.079-0.056-0.114l-6.766-8.837c-0.012-0.015-0.03-0.021-0.042-0.035-0.07-0.083-0.154-0.147-0.247-0.205-0.034-0.021-0.062-0.049-0.098-0.066-0.112-0.053-0.236-0.081-0.366-0.092-0.022-0.002-0.041-0.015-0.063-0.016-0.002,0-0.005,0.002-0.005,0.002-0.007,0-0.011-0.003-0.016-0.003h-33.075c-0.01,0-0.018,0.005-0.028,0.006-0.007,0-0.014-0.004-0.021-0.004-0.04,0.002-0.075,0.025-0.114,0.031-0.101,0.016-0.2,0.035-0.29,0.079-0.045,0.022-0.081,0.055-0.123,0.083-0.079,0.053-0.152,0.108-0.214,0.18-0.014,0.016-0.035,0.023-0.048,0.04l-7.276,9.515c-0.027,0.035-0.034,0.077-0.055,0.114-0.037,0.062-0.07,0.123-0.094,0.193-0.023,0.07-0.034,0.138-0.042,0.209-0.005,0.043-0.025,0.08-0.025,0.125v4.899c0,0.042 0.019,0.077 0.024,0.118 0.008,0.069 0.019,0.135 0.041,0.202 0.023,0.073 0.055,0.137 0.093,0.202zm1.952-2.183h13.975v1.687c0,0.081 0.01,0.164 0.029,0.243l6.496,27.456-20.5-28.068v-1.318zm16.084,0h14.187v1.55l-7.486,28.334-6.7-28.321v-1.563zm14.186-2.11h-14.187v-0.856l6.71-8.172 7.477,8.305v0.723zm2.074,4.067c0.023-0.089 0.035-0.179 0.035-0.27v-1.687h12.626v1.996l-19.83,27.098 7.169-27.137zm12.661-4.067h-12.626v-0.744l6.877-8.213 5.748,7.508v1.449zm-13.708-2.737l-6.17-6.853h11.909l-5.739,6.853zm-16.362-.046l-6.302-6.807h11.892l-5.59,6.807zm-8.639-6.225l7.678,8.295v0.714h-13.974v-0.77l6.296-8.239z" fill="#91DC5A"/>
    </g>
  </g>
</svg>
