<?xml version="1.0" encoding="iso-8859-1"?>
<!-- Generator: Adobe Illustrator 16.0.0, SVG Export Plug-In . SVG Version: 6.00 Build 0)  -->
<!DOCTYPE svg PUBLIC "-//W3C//DTD SVG 1.1//EN" "http://www.w3.org/Graphics/SVG/1.1/DTD/svg11.dtd">
<svg xmlns="http://www.w3.org/2000/svg" xmlns:xlink="http://www.w3.org/1999/xlink" version="1.1" id="Capa_1" x="0px" y="0px" width="512px" height="512px" viewBox="0 0 575.162 575.162" style="enable-background:new 0 0 575.162 575.162;" xml:space="preserve">
<g>
	<g id="_x37_2">
		<g>
			<path d="M439.723,143.704c-42.227-42.195-156.553-19.38-149.494-26.345L155.482,252.138     c48.687,21.176,82.814,69.61,82.814,126.112c0,48.812-25.556,91.448-63.875,115.87l31.354,31.355     c15.536,15.566,40.746,15.566,56.281,0l218.096-218.128C473.157,314.406,500.699,204.68,439.723,143.704z M371.751,254.627     c-22.626,0-40.998-18.372-40.998-41.029s18.372-40.998,40.998-40.998c22.657,0,40.997,18.34,40.997,40.998     S394.376,254.627,371.751,254.627z M0,402.42h170.198v-56.785H0V402.42z M478.325,83.579c-15.725,0-28.487,12.731-28.487,28.487     c0,15.693,12.731,28.393,28.487,28.393s28.487-12.699,28.487-28.393C506.812,96.341,494.05,83.579,478.325,83.579z      M546.676,38.012c-15.726,0-28.487,12.731-28.487,28.456c0,15.756,12.763,28.519,28.487,28.519s28.486-12.762,28.486-28.519     C575.131,50.743,562.4,38.012,546.676,38.012z" fill="#91DC5A"/>
		</g>
	</g>
</g>
<g>
</g>
<g>
</g>
<g>
</g>
<g>
</g>
<g>
</g>
<g>
</g>
<g>
</g>
<g>
</g>
<g>
</g>
<g>
</g>
<g>
</g>
<g>
</g>
<g>
</g>
<g>
</g>
<g>
</g>
</svg>
