<?xml version="1.0" encoding="iso-8859-1"?>
<!-- Generator: Adobe Illustrator 19.0.0, SVG Export Plug-In . SVG Version: 6.00 Build 0)  -->
<svg version="1.1" id="Layer_1" xmlns="http://www.w3.org/2000/svg" xmlns:xlink="http://www.w3.org/1999/xlink" x="0px" y="0px"
	 viewBox="0 0 512 512" style="enable-background:new 0 0 512 512;" xml:space="preserve">
<path style="fill:#88CC2A;" d="M400.234,489.739H111.766c-24.587,0-45.364-17.603-49.408-41.854L33.619,275.439
	c-0.81-4.843,0.554-9.794,3.729-13.538C40.523,258.157,45.18,256,50.087,256h411.826c4.913,0,9.565,2.157,12.739,5.902
	c3.173,3.745,4.532,8.696,3.729,13.538l-28.739,172.446C445.598,472.136,424.821,489.739,400.234,489.739z"/>
<path style="fill:#7FB335;" d="M461.913,256H256v233.739h144.234c24.587,0,45.364-17.603,49.408-41.854l28.739-172.446
	c0.805-4.843-0.554-9.794-3.729-13.538C471.477,258.157,466.826,256,461.913,256z"/>
<path style="fill:#BDDEFF;" d="M361.739,22.261H150.261c-46.032,0-83.478,37.446-83.478,83.478v100.174
	c0,9.223,7.473,16.696,16.696,16.696h66.783v-116.87h211.478v116.87h66.783c9.223,0,16.696-7.473,16.696-16.696V105.739
	C445.217,59.707,407.771,22.261,361.739,22.261z"/>
<path style="fill:#B3D3F2;" d="M361.739,22.261H256v83.478h105.739v116.87h66.783c9.223,0,16.696-7.473,16.696-16.696V105.739
	C445.217,59.707,407.771,22.261,361.739,22.261z"/>
<path style="fill:#736056;" d="M150.261,422.957c-9.223,0-16.696-7.473-16.696-16.696v-66.783c0-9.223,7.473-16.696,16.696-16.696
	s16.696,7.473,16.696,16.696v66.783C166.957,415.484,159.484,422.957,150.261,422.957z"/>
<path style="fill:#665247;" d="M361.739,422.957c-9.223,0-16.696-7.473-16.696-16.696v-66.783c0-9.223,7.473-16.696,16.696-16.696
	s16.696,7.473,16.696,16.696v66.783C378.435,415.484,370.962,422.957,361.739,422.957z"/>
<path style="fill:#736056;" d="M256,422.957c-9.223,0-16.696-7.473-16.696-16.696v-66.783c0-9.223,7.473-16.696,16.696-16.696
	s16.696,7.473,16.696,16.696v66.783C272.696,415.484,265.223,422.957,256,422.957z"/>
<path style="fill:#665247;" d="M272.696,406.261v-66.783c0-9.223-7.473-16.696-16.696-16.696v100.174
	C265.223,422.957,272.696,415.484,272.696,406.261z"/>
<path style="fill:#D7EBFF;" d="M495.304,289.391H16.696C7.473,289.391,0,281.918,0,272.696v-33.391
	c0-27.619,22.468-50.087,50.087-50.087h411.826c27.619,0,50.087,22.468,50.087,50.087v33.391
	C512,281.918,504.521,289.391,495.304,289.391z"/>
<path style="fill:#BDDEFF;" d="M461.913,189.217H256v100.174h239.304c9.217,0,16.696-7.473,16.696-16.696v-33.391
	C512,211.685,489.532,189.217,461.913,189.217z"/>
<g>
</g>
<g>
</g>
<g>
</g>
<g>
</g>
<g>
</g>
<g>
</g>
<g>
</g>
<g>
</g>
<g>
</g>
<g>
</g>
<g>
</g>
<g>
</g>
<g>
</g>
<g>
</g>
<g>
</g>
</svg>
